<svg xmlns="http://www.w3.org/2000/svg" version="1.1" xmlns:xlink="http://www.w3.org/1999/xlink" xmlns:svgjs="http://svgjs.dev/svgjs" viewBox="0 0 1422 800" opacity="1"><g stroke-width="3.5" stroke="hsl(239, 58%, 70%)" fill="none" stroke-linecap="butt"><line x1="138" y1="0" x2="0" y2="138" opacity="0.05"></line><line x1="276" y1="0" x2="138" y2="138" opacity="0.05"></line><line x1="276" y1="0" x2="414" y2="138" opacity="0.05"></line><line x1="414" y1="0" x2="552" y2="138" opacity="0.05"></line><line x1="690" y1="0" x2="552" y2="138" opacity="0.05"></line><line x1="690" y1="0" x2="828" y2="138" opacity="0.05"></line><line x1="828" y1="0" x2="966" y2="138" opacity="0.05"></line><line x1="1104" y1="0" x2="966" y2="138" opacity="0.05"></line><line x1="1104" y1="0" x2="1242" y2="138" opacity="0.05"></line><line x1="1242" y1="0" x2="1380" y2="138" opacity="0.05"></line><line x1="1380" y1="0" x2="1518" y2="138" opacity="0.05"></line><line x1="138" y1="138" x2="0" y2="276" opacity="0.21"></line><line x1="276" y1="138" x2="138" y2="276" opacity="0.21"></line><line x1="414" y1="138" x2="276" y2="276" opacity="0.21"></line><line x1="414" y1="138" x2="552" y2="276" opacity="0.21"></line><line x1="552" y1="138" x2="690" y2="276" opacity="0.21"></line><line x1="690" y1="138" x2="828" y2="276" opacity="0.21"></line><line x1="966" y1="138" x2="828" y2="276" opacity="0.21"></line><line x1="966" y1="138" x2="1104" y2="276" opacity="0.21"></line><line x1="1104" y1="138" x2="1242" y2="276" opacity="0.21"></line><line x1="1242" y1="138" x2="1380" y2="276" opacity="0.21"></line><line x1="1380" y1="138" x2="1518" y2="276" opacity="0.21"></line><line x1="0" y1="276" x2="138" y2="414" opacity="0.38"></line><line x1="138" y1="276" x2="276" y2="414" opacity="0.38"></line><line x1="414" y1="276" x2="276" y2="414" opacity="0.38"></line><line x1="552" y1="276" x2="414" y2="414" opacity="0.38"></line><line x1="552" y1="276" x2="690" y2="414" opacity="0.38"></line><line x1="690" y1="276" x2="828" y2="414" opacity="0.38"></line><line x1="966" y1="276" x2="828" y2="414" opacity="0.38"></line><line x1="966" y1="276" x2="1104" y2="414" opacity="0.38"></line><line x1="1242" y1="276" x2="1104" y2="414" opacity="0.38"></line><line x1="1380" y1="276" x2="1242" y2="414" opacity="0.38"></line><line x1="1380" y1="276" x2="1518" y2="414" opacity="0.38"></line><line x1="138" y1="414" x2="0" y2="552" opacity="0.54"></line><line x1="138" y1="414" x2="276" y2="552" opacity="0.54"></line><line x1="414" y1="414" x2="276" y2="552" opacity="0.54"></line><line x1="414" y1="414" x2="552" y2="552" opacity="0.54"></line><line x1="552" y1="414" x2="690" y2="552" opacity="0.54"></line><line x1="690" y1="414" x2="828" y2="552" opacity="0.54"></line><line x1="828" y1="414" x2="966" y2="552" opacity="0.54"></line><line x1="1104" y1="414" x2="966" y2="552" opacity="0.54"></line><line x1="1104" y1="414" x2="1242" y2="552" opacity="0.54"></line><line x1="1380" y1="414" x2="1242" y2="552" opacity="0.54"></line><line x1="1518" y1="414" x2="1380" y2="552" opacity="0.54"></line><line x1="0" y1="552" x2="138" y2="690" opacity="0.71"></line><line x1="138" y1="552" x2="276" y2="690" opacity="0.71"></line><line x1="276" y1="552" x2="414" y2="690" opacity="0.71"></line><line x1="414" y1="552" x2="552" y2="690" opacity="0.71"></line><line x1="552" y1="552" x2="690" y2="690" opacity="0.71"></line><line x1="690" y1="552" x2="828" y2="690" opacity="0.71"></line><line x1="828" y1="552" x2="966" y2="690" opacity="0.71"></line><line x1="1104" y1="552" x2="966" y2="690" opacity="0.71"></line><line x1="1242" y1="552" x2="1104" y2="690" opacity="0.71"></line><line x1="1380" y1="552" x2="1242" y2="690" opacity="0.71"></line><line x1="1380" y1="552" x2="1518" y2="690" opacity="0.71"></line><line x1="138" y1="690" x2="0" y2="828" opacity="0.87"></line><line x1="276" y1="690" x2="138" y2="828" opacity="0.87"></line><line x1="414" y1="690" x2="276" y2="828" opacity="0.87"></line><line x1="552" y1="690" x2="414" y2="828" opacity="0.87"></line><line x1="552" y1="690" x2="690" y2="828" opacity="0.87"></line><line x1="828" y1="690" x2="690" y2="828" opacity="0.87"></line><line x1="828" y1="690" x2="966" y2="828" opacity="0.87"></line><line x1="1104" y1="690" x2="966" y2="828" opacity="0.87"></line><line x1="1104" y1="690" x2="1242" y2="828" opacity="0.87"></line><line x1="1242" y1="690" x2="1380" y2="828" opacity="0.87"></line><line x1="1518" y1="690" x2="1380" y2="828" opacity="0.87"></line></g></svg>